<?xml version="1.0" encoding="UTF-8" standalone="no"?>
<svg
   xmlns:dc="http://purl.org/dc/elements/1.1/"
   xmlns:cc="http://creativecommons.org/ns#"
   xmlns:rdf="http://www.w3.org/1999/02/22-rdf-syntax-ns#"
   xmlns:svg="http://www.w3.org/2000/svg"
   xmlns="http://www.w3.org/2000/svg"
   xmlns:sodipodi="http://sodipodi.sourceforge.net/DTD/sodipodi-0.dtd"
   xmlns:inkscape="http://www.inkscape.org/namespaces/inkscape"
   version="1.1"
   id="Capa_1"
   x="0px"
   y="0px"
   width="475.078px"
   height="475.077px"
   viewBox="0 0 475.078 475.077"
   style="enable-background:new 0 0 475.078 475.077;"
   xml:space="preserve"
   sodipodi:docname="download.svg"
   inkscape:version="1.0.1 (c497b03c, 2020-09-10)"><metadata
   id="metadata876"><rdf:RDF><cc:Work
       rdf:about=""><dc:format>image/svg+xml</dc:format><dc:type
         rdf:resource="http://purl.org/dc/dcmitype/StillImage" /><dc:title></dc:title></cc:Work></rdf:RDF></metadata><defs
   id="defs874">
	

		
		
	</defs><sodipodi:namedview
   pagecolor="#ffffff"
   bordercolor="#666666"
   borderopacity="1"
   objecttolerance="10"
   gridtolerance="10"
   guidetolerance="10"
   inkscape:pageopacity="0"
   inkscape:pageshadow="2"
   inkscape:window-width="1361"
   inkscape:window-height="895"
   id="namedview872"
   showgrid="false"
   inkscape:zoom="1.4987013"
   inkscape:cx="251.55113"
   inkscape:cy="333.62169"
   inkscape:window-x="0"
   inkscape:window-y="25"
   inkscape:window-maximized="0"
   inkscape:current-layer="Capa_1" />
<path
   d="m 467.083,318.627 c -5.324,-5.328 -11.8,-7.994 -19.41,-7.994 H 315.195 l -38.828,38.827 c -11.04,10.657 -23.982,15.988 -38.828,15.988 -14.843,0 -27.789,-5.324 -38.828,-15.988 L 160.168,310.633 H 27.408 c -7.612,0 -14.083,2.669 -19.414,7.994 C 2.664,323.955 0,330.427 0,338.044 v 91.358 c 0,7.614 2.664,14.085 7.994,19.414 5.33,5.328 11.801,7.99 19.414,7.99 h 420.266 c 7.61,0 14.086,-2.662 19.41,-7.99 5.332,-5.329 7.994,-11.8 7.994,-19.414 v -91.358 c 0,-7.617 -2.662,-14.089 -7.995,-19.417 z m -107.058,96.214 c -3.621,3.617 -7.905,5.424 -12.854,5.424 -4.949,0 -9.227,-1.807 -12.847,-5.424 -3.614,-3.617 -5.421,-7.898 -5.421,-12.844 0,-4.948 1.807,-9.236 5.421,-12.847 3.62,-3.62 7.898,-5.431 12.847,-5.431 4.949,0 9.232,1.811 12.854,5.431 3.613,3.61 5.421,7.898 5.421,12.847 0,4.945 -1.808,9.227 -5.421,12.844 z m 73.084,0 c -3.614,3.617 -7.898,5.424 -12.848,5.424 -4.948,0 -9.229,-1.807 -12.847,-5.424 -3.613,-3.617 -5.42,-7.898 -5.42,-12.844 0,-4.948 1.807,-9.236 5.42,-12.847 3.617,-3.62 7.898,-5.431 12.847,-5.431 4.949,0 9.233,1.811 12.848,5.431 3.617,3.61 5.427,7.898 5.427,12.847 0,4.945 -1.807,9.227 -5.427,12.844 z"
   id="path833"
   style="fill:#56423e;fill-opacity:1" /><path
   d="m 224.692,323.479 c 3.428,3.613 7.71,5.421 12.847,5.421 5.141,0 9.418,-1.808 12.847,-5.421 L 378.293,195.571 c 5.899,-5.519 7.234,-12.182 3.997,-19.986 -3.23,-7.421 -8.847,-11.132 -16.844,-11.136 H 292.355 V 36.543 c 0,-4.948 -1.811,-9.231 -5.421,-12.847 -3.62,-3.617 -7.901,-5.426 -12.847,-5.426 h -73.096 c -4.946,0 -9.229,1.809 -12.847,5.426 -3.615,3.616 -5.424,7.898 -5.424,12.847 V 164.45 h -73.089 c -7.998,0 -13.61,3.715 -16.846,11.136 -3.234,7.801 -1.903,14.467 3.999,19.986 z"
   id="path835"
   style="fill:#56423e;fill-opacity:1" />
<g
   id="g841">
</g>
<g
   id="g843">
</g>
<g
   id="g845">
</g>
<g
   id="g847">
</g>
<g
   id="g849">
</g>
<g
   id="g851">
</g>
<g
   id="g853">
</g>
<g
   id="g855">
</g>
<g
   id="g857">
</g>
<g
   id="g859">
</g>
<g
   id="g861">
</g>
<g
   id="g863">
</g>
<g
   id="g865">
</g>
<g
   id="g867">
</g>
<g
   id="g869">
</g>
</svg>
