<?xml version="1.0" encoding="UTF-8" standalone="no"?>
<svg
   xmlns:dc="http://purl.org/dc/elements/1.1/"
   xmlns:cc="http://creativecommons.org/ns#"
   xmlns:rdf="http://www.w3.org/1999/02/22-rdf-syntax-ns#"
   xmlns:svg="http://www.w3.org/2000/svg"
   xmlns="http://www.w3.org/2000/svg"
   xmlns:sodipodi="http://sodipodi.sourceforge.net/DTD/sodipodi-0.dtd"
   xmlns:inkscape="http://www.inkscape.org/namespaces/inkscape"
   version="1.1"
   id="Layer_1"
   x="0px"
   y="0px"
   viewBox="0 0 512 512"
   style="enable-background:new 0 0 512 512;"
   xml:space="preserve"
   sodipodi:docname="settings.svg"
   inkscape:version="1.0.1 (c497b03c, 2020-09-10)"><metadata
   id="metadata880"><rdf:RDF><cc:Work
       rdf:about=""><dc:format>image/svg+xml</dc:format><dc:type
         rdf:resource="http://purl.org/dc/dcmitype/StillImage" /></cc:Work></rdf:RDF></metadata><defs
   id="defs878">
	

		
	</defs><sodipodi:namedview
   pagecolor="#ffffff"
   bordercolor="#666666"
   borderopacity="1"
   objecttolerance="10"
   gridtolerance="10"
   guidetolerance="10"
   inkscape:pageopacity="0"
   inkscape:pageshadow="2"
   inkscape:window-width="1436"
   inkscape:window-height="885"
   id="namedview876"
   showgrid="false"
   inkscape:zoom="1.390625"
   inkscape:cx="259.59551"
   inkscape:cy="296.26966"
   inkscape:window-x="0"
   inkscape:window-y="25"
   inkscape:window-maximized="0"
   inkscape:current-layer="Layer_1" />
<path
   d="M 478.213,163.264 431.408,82.325 C 426.309,72.981 415.301,68.096 403.76,72.362 L 350.875,93.61 C 340.827,86.378 330.267,80.234 319.344,75.306 L 311.301,19.2 C 309.936,8.256 300.443,0 289.221,0 h -93.867 c -11.221,0 -20.715,8.256 -22.059,19.008 l -8.064,56.277 C 154.65,80.085 144.26,86.144 133.764,93.61 L 80.731,72.299 C 70.534,68.374 58.374,72.79 53.296,82.07 L 6.405,163.157 c -5.632,9.557 -3.307,21.952 5.44,28.864 l 44.821,35.029 c -0.704,6.763 -1.045,12.672 -1.045,18.283 0,5.611 0.341,11.52 1.024,18.283 l -44.843,35.051 c -8.555,6.763 -10.901,18.752 -5.44,28.736 l 46.805,80.96 c 5.099,9.323 16.128,14.208 27.669,9.941 l 52.885,-21.248 c 10.048,7.232 20.608,13.376 31.531,18.304 l 8.043,56.085 c 1.344,10.965 10.837,19.221 22.059,19.221 h 73.515 c 3.989,0 7.616,-2.219 9.451,-5.739 1.835,-3.52 1.557,-7.765 -0.704,-11.029 -16.32,-23.381 -24.96,-50.795 -24.96,-79.232 0,-13.269 1.941,-26.56 5.781,-39.509 0.981,-3.328 0.299,-6.912 -1.856,-9.643 -2.155,-2.709 -5.461,-4.16 -8.939,-4.053 -1.152,0.064 -2.283,0.213 -5.184,0.576 -53.056,0 -96.213,-43.157 -96.213,-96.213 0,-53.056 43.157,-96.235 96.213,-96.235 53.056,0 96.213,43.157 96.021,97.984 -0.149,1.131 -0.299,2.261 -0.363,3.413 -0.171,3.477 1.344,6.805 4.053,8.939 2.731,2.155 6.336,2.795 9.643,1.856 20.757,-6.187 41.216,-7.659 64.384,-3.456 2.837,0.512 5.952,-0.768 8.341,-2.539 2.368,-1.771 3.947,-5.056 4.267,-8 0.043,-0.384 0.149,-2.112 0.149,-2.496 0,-6.635 -0.469,-12.885 -1.024,-18.283 L 472.752,192 c 8.555,-6.741 10.901,-18.731 5.461,-28.736 z"
   id="path833"
   style="stroke-width:1.00157;stroke-miterlimit:4;stroke-dasharray:none;fill:#56423e;fill-opacity:1" />
<g
   id="g843"
   style="fill:#56423e;fill-opacity:1">
	<g
   id="g841"
   style="fill:#56423e;fill-opacity:1">
		<path
   d="m 497.989,298.667 c -5.888,0 -10.667,4.779 -10.667,10.667 v 26.027 c -16.085,-28.309 -48.213,-58.027 -96,-58.027 -64.704,0 -117.333,52.629 -117.333,117.333 0,64.704 52.63,117.333 117.334,117.333 5.888,0 10.667,-4.779 10.667,-10.667 0,-5.888 -4.779,-10.667 -10.667,-10.667 -52.928,0 -96,-43.072 -96,-96 0,-52.928 43.072,-96 96,-96 50.304,0 77.973,41.557 84.779,64 H 433.99 c -5.888,0 -10.667,4.779 -10.667,10.667 0,5.888 4.779,10.667 10.667,10.667 h 64 c 5.888,0 10.667,-4.779 10.667,-10.667 v -64 c -10e-4,-5.888 -4.758,-10.666 -10.668,-10.666 z"
   id="path839"
   style="fill:#56423e;fill-opacity:1" />
	</g>
</g>
<g
   id="g845">
</g>
<g
   id="g847">
</g>
<g
   id="g849">
</g>
<g
   id="g851">
</g>
<g
   id="g853">
</g>
<g
   id="g855">
</g>
<g
   id="g857">
</g>
<g
   id="g859">
</g>
<g
   id="g861">
</g>
<g
   id="g863">
</g>
<g
   id="g865">
</g>
<g
   id="g867">
</g>
<g
   id="g869">
</g>
<g
   id="g871">
</g>
<g
   id="g873">
</g>
</svg>
